<svg xmlns="http://www.w3.org/2000/svg" width="1200" height="630" viewBox="0 0 1200 630">
  <rect width="1200" height="630" fill="#0b0f14"/>
  <g stroke="#34d399" stroke-width="2" opacity="0.25">
    <line x1="900" y1="120" x2="1060" y2="80"/>
    <line x1="900" y1="120" x2="980" y2="260"/>
    <line x1="1060" y1="80" x2="1120" y2="220"/>
    <line x1="980" y1="260" x2="1120" y2="220"/>
    <line x1="980" y1="260" x2="880" y2="400"/>
    <line x1="1120" y1="220" x2="1080" y2="420"/>
    <line x1="880" y1="400" x2="1080" y2="420"/>
    <line x1="880" y1="400" x2="960" y2="540"/>
    <line x1="1080" y1="420" x2="960" y2="540"/>
  </g>
  <g fill="#34d399" opacity="0.7">
    <circle cx="900" cy="120" r="9"/>
    <circle cx="1060" cy="80" r="7"/>
    <circle cx="980" cy="260" r="10"/>
    <circle cx="1120" cy="220" r="7"/>
    <circle cx="880" cy="400" r="9"/>
    <circle cx="1080" cy="420" r="8"/>
    <circle cx="960" cy="540" r="7"/>
  </g>
  <text x="90" y="180" font-family="-apple-system, 'Segoe UI', Helvetica, Arial, sans-serif" font-size="30" font-weight="700" letter-spacing="4" fill="#34d399">COMMUNITY INFORMATICS LAB · GMU</text>
  <text x="86" y="290" font-family="-apple-system, 'Segoe UI', Helvetica, Arial, sans-serif" font-size="88" font-weight="800" fill="#e8ebee">GieMyung Lee</text>
  <text x="90" y="370" font-family="-apple-system, 'Segoe UI', Helvetica, Arial, sans-serif" font-size="34" fill="#8b96a1">Machine learning, NLP, and geospatial data science</text>
  <text x="90" y="420" font-family="-apple-system, 'Segoe UI', Helvetica, Arial, sans-serif" font-size="34" fill="#8b96a1">for communities and government.</text>
  <text x="90" y="540" font-family="-apple-system, 'Segoe UI', Helvetica, Arial, sans-serif" font-size="26" font-weight="600" fill="#34d399">landname.github.io</text>
</svg>
